<svg xmlns="http://www.w3.org/2000/svg" viewBox="0 0 256 256" width="256" height="256" role="img" aria-labelledby="title">
  <title id="title">Sinking thumb</title>
  <defs><linearGradient id="water" x1="0" y1="0" x2="0" y2="1"><stop offset="0" stop-color="#5CC0EA"/><stop offset="0.55" stop-color="#16628F"/><stop offset="1" stop-color="#04192C"/></linearGradient><linearGradient id="ray" x1="0" y1="0" x2="0" y2="1"><stop offset="0" stop-color="#FFFFFF" stop-opacity="0.22"/><stop offset="1" stop-color="#FFFFFF" stop-opacity="0"/></linearGradient><linearGradient id="glassf" x1="0" y1="0" x2="0" y2="1"><stop offset="0" stop-color="#FFFFFF" stop-opacity="0.85"/><stop offset="1" stop-color="#CDEBF8" stop-opacity="0.55"/></linearGradient><filter id="shadow" x="-40%" y="-40%" width="180%" height="180%"><feGaussianBlur in="SourceAlpha" stdDeviation="7"/><feOffset dy="8"/><feComponentTransfer><feFuncA type="linear" slope="0.4"/></feComponentTransfer><feMerge><feMergeNode/><feMergeNode in="SourceGraphic"/></feMerge></filter><filter id="soft" x="-50%" y="-50%" width="200%" height="200%"><feGaussianBlur stdDeviation="10"/></filter><filter id="frost" x="-10%" y="-10%" width="120%" height="120%"><feGaussianBlur stdDeviation="1.6"/></filter></defs>
<rect width="256" height="256" fill="url(#water)"/><path d="M60 0 L96 0 L150 256 L90 256 Z" fill="url(#ray)"/><path d="M150 0 L170 0 L220 256 L188 256 Z" fill="url(#ray)"/><g filter="url(#shadow)"><rect x="96" y="92" width="64" height="128" rx="32" fill="url(#glassf)"/></g><rect x="104" y="100" width="12" height="60" rx="6" fill="#FFFFFF" opacity=".8"/><circle cx="146" cy="70" r="9" fill="none" stroke="#FFFFFF" stroke-width="3.5" opacity=".8"/><circle cx="124" cy="48" r="6" fill="none" stroke="#FFFFFF" stroke-width="3" opacity=".7"/><circle cx="150" cy="30" r="4" fill="none" stroke="#FFFFFF" stroke-width="2.5" opacity=".6"/>
</svg>
