<svg xmlns="http://www.w3.org/2000/svg" viewBox="0 0 256 256" width="256" height="256" role="img" aria-labelledby="title">
  <title id="title">Penguin dive</title>
  <defs><linearGradient id="water" x1="0" y1="0" x2="0" y2="1"><stop offset="0" stop-color="#3AA6D9"/><stop offset="1" stop-color="#062038"/></linearGradient><linearGradient id="body" x1="0" y1="0" x2="1" y2="0"><stop offset="0" stop-color="#2C3E52"/><stop offset="1" stop-color="#0A0F16"/></linearGradient><linearGradient id="belly" x1="0" y1="0" x2="0" y2="1"><stop offset="0" stop-color="#FFFFFF"/><stop offset="1" stop-color="#DCE9F1"/></linearGradient><linearGradient id="beak" x1="0" y1="0" x2="0" y2="1"><stop offset="0" stop-color="#FFD27A"/><stop offset="1" stop-color="#F08A1C"/></linearGradient><filter id="shadow" x="-40%" y="-40%" width="180%" height="180%"><feGaussianBlur in="SourceAlpha" stdDeviation="7"/><feOffset dy="8"/><feComponentTransfer><feFuncA type="linear" slope="0.4"/></feComponentTransfer><feMerge><feMergeNode/><feMergeNode in="SourceGraphic"/></feMerge></filter><filter id="soft" x="-50%" y="-50%" width="200%" height="200%"><feGaussianBlur stdDeviation="10"/></filter><filter id="frost" x="-10%" y="-10%" width="120%" height="120%"><feGaussianBlur stdDeviation="1.6"/></filter></defs>
<rect width="256" height="256" fill="url(#water)"/><g transform="rotate(16 128 132)"><g filter="url(#shadow)"><ellipse cx="128" cy="126" rx="44" ry="84" fill="url(#body)"/></g><ellipse cx="119" cy="134" rx="27" ry="64" fill="url(#belly)"/><path d="M114 204 L142 204 L128 234 Z" fill="url(#beak)"/><circle cx="141" cy="182" r="7" fill="#FFFFFF"/><circle cx="142" cy="183" r="3.5" fill="#0A0F16"/><path d="M168 104 L204 58 L176 132 Z" fill="url(#body)"/><path d="M112 48 L100 22 L124 40 Z" fill="url(#beak)"/><path d="M140 46 L154 20 L150 44 Z" fill="url(#beak)"/></g><circle cx="74" cy="64" r="8" fill="none" stroke="#FFFFFF" stroke-width="3" opacity=".8"/><circle cx="60" cy="40" r="5" fill="none" stroke="#FFFFFF" stroke-width="2.5" opacity=".7"/>
</svg>
