<svg xmlns="http://www.w3.org/2000/svg" viewBox="0 0 256 256" width="256" height="256" role="img" aria-labelledby="title">
  <title id="title">Rabbit hole</title>
<rect width="256" height="256" fill="#0B0F14"/><rect x="66.0" y="24.0" width="124.0" height="208.0" rx="26.0" fill="#132F45" /><rect x="66.0" y="24.0" width="124.0" height="208.0" rx="26.0" fill="none" stroke="#7CC4E8" stroke-width="6"/><ellipse cx="128" cy="166" rx="50" ry="24" fill="#2A6488"/><ellipse cx="128" cy="170" rx="40" ry="18" fill="#1B4A66"/><ellipse cx="128" cy="174" rx="30" ry="13" fill="#0F2C40"/><ellipse cx="128" cy="178" rx="20" ry="8" fill="#050B11"/><path d="M110 168 C102 120 96 84 108 70 C120 60 124 100 122 168 Z" fill="#F7FBFE"/><path d="M112 160 C107 124 104 96 110 84 C116 80 117 110 117 160 Z" fill="#F4B9C4"/><path d="M134 168 C138 118 148 82 164 76 C176 74 160 120 148 168 Z" fill="#F7FBFE"/><path d="M139 160 C143 124 150 98 160 90 C164 94 154 126 145 160 Z" fill="#F4B9C4"/><ellipse cx="128" cy="174" rx="40" ry="12" fill="#050B11"/><rect x="178.0" y="60.0" width="5.0" height="40.0" rx="2.5" fill="#7CC4E8" />
</svg>
